<svg xmlns="http://www.w3.org/2000/svg" width="37.471" height="54.518" viewBox="0 0 37.471 54.518">
  <path id="Icon_awesome-question" data-name="Icon awesome-question" d="M20.586,0c-8.5,0-14,3.482-18.326,9.693a2.558,2.558,0,0,0,.551,3.5L7.4,16.676a2.555,2.555,0,0,0,3.541-.442c2.667-3.341,4.646-5.265,8.812-5.265,3.276,0,7.328,2.108,7.328,5.285,0,2.4-1.982,3.635-5.217,5.448C18.1,23.816,13.1,26.448,13.1,33.032v1.042a2.556,2.556,0,0,0,2.556,2.556h7.717a2.556,2.556,0,0,0,2.556-2.556v-.615c0-4.564,13.339-4.754,13.339-17.1C39.271,7.055,29.624,0,20.586,0ZM19.519,39.766a7.376,7.376,0,1,0,7.376,7.376A7.384,7.384,0,0,0,19.519,39.766Z" transform="translate(-1.8)" fill="#fff"/>
</svg>
