<svg xmlns="http://www.w3.org/2000/svg" width="247.773" height="257" viewBox="0 0 247.773 257">
  <path id="Icon_ionic-ios-bookmarks" data-name="Icon ionic-ios-bookmarks" d="M218.517,2.25V75.624L205.38,67.306l-5.221-3.672-5.221,3.672L181.8,75.624V2.25H158.051A23.667,23.667,0,0,0,134.76,26V205.678a8.226,8.226,0,0,1-7.63,8.261,8.041,8.041,0,0,1-8.433-8.032V26A23.667,23.667,0,0,0,95.4,2.25H34.422A31.707,31.707,0,0,0,2.813,33.86V200.113a31.707,31.707,0,0,0,31.61,31.61l61.958-.057a39.591,39.591,0,0,1,7,.8,18.9,18.9,0,0,1,15.26,18.473,8.158,8.158,0,0,0,7.114,8.261,8.038,8.038,0,0,0,8.949-8.089,19.028,19.028,0,0,1,15.432-18.645,38.325,38.325,0,0,1,6.884-.746l61.958.057a31.707,31.707,0,0,0,31.61-31.61V33.86C250.643,16.477,235.9,2.25,218.517,2.25Z" transform="translate(-2.813 -2.25)" fill="#fff"/>
</svg>
