<svg xmlns="http://www.w3.org/2000/svg" viewBox="0 0 30 30"><defs><style>.cls-1{fill:#fff;}</style></defs><g id="icons"><path class="cls-1" d="M0,15.05V8.5H4.08v5.63H8.47V8.5h3.28l0,.14c-.07.29-1.26,5.6-1.41,6.26a3.27,3.27,0,0,0-.11.71s.82.14,1.78.27l1.75.24.26-.31a1.8,1.8,0,0,1,2.77,0,1.76,1.76,0,0,1-1.37,2.89A1.82,1.82,0,0,1,14,18l-.31-.34L12,18c-1,.14-1.76.26-1.77.28a4,4,0,0,0,.56,1.39,4.16,4.16,0,0,0,2.06,1.75c.23.09.43.19.45.2s-1.06,0-2.38,0H8.47V16.75H4.08V21.6H0Z"/><path class="cls-1" d="M18,21.54a1.9,1.9,0,0,1,.4-.17,4.7,4.7,0,0,0,2.77-4.46A3.88,3.88,0,0,0,20.06,14a4.19,4.19,0,0,0-1.8-1.13,4,4,0,0,0-1.64-.18,4,4,0,0,0-1.68.17l-.68.22c-.06,0-.08,0-.07,0s.13-.49.24-1l.21-.9h5.95V8.48l3.06,0c2.85,0,3.1.05,3.58.18A3.33,3.33,0,0,1,29.8,11,3.81,3.81,0,0,1,30,12.46a4.89,4.89,0,0,1-.11,1.34,3.73,3.73,0,0,1-2.8,2.72,17.16,17.16,0,0,1-3.26.23H22.68V21.6H20.31A21.48,21.48,0,0,1,18,21.54ZM25,14A1.49,1.49,0,0,0,26,13a1.43,1.43,0,0,0-1-1.77,9.17,9.17,0,0,0-1.3-.11l-1.07,0v3.05l1,0A8.07,8.07,0,0,0,25,14Z"/></g></svg>