<svg xmlns="http://www.w3.org/2000/svg" width="252.858" height="213.363" viewBox="0 0 252.858 213.363">
  <path id="Icon_awesome-tasks" data-name="Icon awesome-tasks" d="M68.948,3.991a5.926,5.926,0,0,0-8.4,0L29.1,35.257,17.892,24.333a5.926,5.926,0,0,0-8.4,0L1.743,32.1a5.926,5.926,0,0,0,0,8.4L25.246,63.9a6.312,6.312,0,0,0,8.7,0l7.7-7.714L77.3,20.535a5.971,5.971,0,0,0,.044-8.4Zm0,78.618a5.926,5.926,0,0,0-8.4,0L29.1,114.078,17.892,103.164a5.926,5.926,0,0,0-8.4,0l-7.754,7.749a5.926,5.926,0,0,0,0,8.4l23.444,23.459a6.307,6.307,0,0,0,8.692,0l7.754-7.749L77.289,99.351A5.926,5.926,0,0,0,77.334,91ZM31.607,168.2a23.707,23.707,0,1,0,0,47.411,23.705,23.705,0,1,0,0-47.411Zm213.349,7.9H102.723a7.9,7.9,0,0,0-7.9,7.9v15.8a7.9,7.9,0,0,0,7.9,7.9H244.956a7.9,7.9,0,0,0,7.9-7.9V184A7.9,7.9,0,0,0,244.956,176.1Zm0-158.036H102.723a7.9,7.9,0,0,0-7.9,7.9v15.8a7.9,7.9,0,0,0,7.9,7.9H244.956a7.9,7.9,0,0,0,7.9-7.9v-15.8A7.9,7.9,0,0,0,244.956,18.066Zm0,79.018H102.723a7.9,7.9,0,0,0-7.9,7.9v15.8a7.9,7.9,0,0,0,7.9,7.9H244.956a7.9,7.9,0,0,0,7.9-7.9v-15.8A7.9,7.9,0,0,0,244.956,97.084Z" transform="translate(0 -2.248)" fill="#fff"/>
</svg>
