<svg xmlns="http://www.w3.org/2000/svg" width="350.022" height="233.333" viewBox="0 0 350.022 233.333">
  <g id="Grupo_1886" data-name="Grupo 1886" transform="translate(-81.156 -139)">
    <path id="Trazado_3075" data-name="Trazado 3075" d="M285.449,139H110.195a29.039,29.039,0,0,0-29.039,29.039V343.294a29.039,29.039,0,0,0,29.039,29.039H285.449a29.039,29.039,0,0,0,29.04-29.039V168.039A29.039,29.039,0,0,0,285.449,139ZM261.856,271.512H214.175s-.258,47.939,0,47.681-31.783,0-31.783,0V271.524H134.7V239.729H182.38V192.048h31.795v47.681h47.681Z" fill="#fff"/>
    <path id="Trazado_3076" data-name="Trazado 3076" d="M411.392,158.407a19.493,19.493,0,0,0-10.846,3.5l-66.6,45.948v95.653l66.6,45.874A19.489,19.489,0,0,0,431.178,333.7V177.592A19.488,19.488,0,0,0,411.392,158.407Z" fill="#fff"/>
  </g>
</svg>
