<svg xmlns="http://www.w3.org/2000/svg" width="270.259" height="270" viewBox="0 0 270.259 270">
  <g id="Grupo_1896" data-name="Grupo 1896" transform="translate(-120.259 -121)">
    <path id="Trazado_3081" data-name="Trazado 3081" d="M120.518,315.612l45.388-44.483s5.237-6.982,20.948-6.982c18.657,0,105.561-.114,105.561-.114s24.2-.468,24.2-22.58V147.509S317.609,128.565,295,121H142.76s-21.66,3.642-22.242,23.06S120.518,315.612,120.518,315.612Z" fill="#fff"/>
    <path id="Trazado_3082" data-name="Trazado 3082" d="M181.617,299.642H331.682s19.849,0,19.849-17.457V182.552s27.027-7.99,36.688,14.269a29.43,29.43,0,0,1,2.3,11.733V391l-44.806-44.806s-8.146-8.147-23.276-8.147H209.548S173.471,340.375,181.617,299.642Z" fill="#fff"/>
  </g>
</svg>
