<svg xmlns="http://www.w3.org/2000/svg" width="318.639" height="311.31" viewBox="0 0 318.639 311.31">
  <g id="g3103" transform="translate(-21.016 0)">
    <path id="Sustracción_1" data-name="Sustracción 1" d="M165.553,311.31c-36.376-6.644-73.431-13.032-109.266-19.209h0c-18.426-3.176-37.478-6.46-56.266-9.75C-.009,226.834,0,170.374.008,115.772v-2.323c0-30.135.008-57.287.008-84.417,20.61-3.6,41.573-7.232,61.845-10.741l.128-.022C96.249,12.339,131.675,6.208,166.531,0h21.647V28.96c5.787.032,11.966.048,18.892.048,9.313,0,18.749-.029,27.875-.057h.071c9.085-.028,18.48-.058,27.879-.058,16.117,0,29.275.09,41.41.284a14.352,14.352,0,0,1,1.437-.073,12.485,12.485,0,0,1,9.362,4.028A12.707,12.707,0,0,1,318.276,43c.32,37.1.267,74.823.216,111.308v.3c-.047,33.553-.1,68.249.147,102.363-.078,1.558-.089,3.185-.1,4.759v.034c-.042,5.909-.085,12.018-3.411,17.108-4.473,3.185-10.027,3.337-15.4,3.485h0c-.949.026-1.93.053-2.876.1-21.786-.108-43.647-.122-60.259-.122-7.893,0-15.924,0-23.69.007h-1.274c-7.686,0-15.634.007-23.447.007V311.31H165.553Zm22.625-68.778v28.959H307.635V39.819H188.178V65.158h94.117V79.636H188.178v18.1h94.117v14.481H188.178v18.1h94.117V144.8H188.178v18.1h94.117v14.481H188.178v18.1h94.117v14.481H188.178v18.1h94.117v14.479ZM100.14,205.156a62.109,62.109,0,0,1,6.863.535h.013a62.439,62.439,0,0,0,6.927.537,14.44,14.44,0,0,0,6.833-1.379c5.684-22.163,10.735-44.906,15.619-66.9l.013-.062.022-.1c2.786-12.547,5.668-25.52,8.635-38.241-6.466.389-14.1.821-21.684,1.085-1.1,6.314-2.232,12.731-3.326,18.936l-.014.078c-3.244,18.422-6.6,37.471-9.654,56.244-4.539-21.182-9.289-44.429-14.951-73.159-2.68.141-5.409.274-8.046.4l-.2.01c-4.052.2-8.241.4-12.381.64-2.877,13.432-5.848,27.092-8.721,40.3l-.032.147-.057.262c-2.161,9.935-4.4,20.208-6.574,30.31-2.137-15.152-4.739-30.5-7.256-45.342v-.01c-1.32-7.78-2.684-15.825-3.965-23.751-6.193.216-12.454.472-18.606.759,3.253,18.514,7.053,37.226,10.729,55.322,2.665,13.121,5.42,26.689,7.949,40.1,7.679.519,14.523.934,20.923,1.268,1.628-7.8,3.359-15.725,5.032-23.389l.023-.1c3.306-15.14,6.725-30.8,9.533-46.3,2.669,14.918,5.893,29.986,9.01,44.557l.019.089c1.9,8.9,3.873,18.1,5.7,27.208C99.026,205.174,99.574,205.156,100.14,205.156Z" transform="translate(21.016 0.001)" fill="#fff"/>
  </g>
</svg>
