<svg xmlns="http://www.w3.org/2000/svg" width="251.329" height="291" viewBox="0 0 251.329 291">
  <g id="Grupo_1955" data-name="Grupo 1955" transform="translate(-137.815 -102.5)">
    <path id="Sustracción_3" data-name="Sustracción 3" d="M-10454.267,4337h-4l-194-1h-.043a24.644,24.644,0,0,1-7.562-1.27,25.713,25.713,0,0,1-8.173-4.366,23.359,23.359,0,0,1-6.545-8.3,30.387,30.387,0,0,1-2.677-13.064V4084c0-.7-.039-1.53-.086-2.543v-.03l0-.053,0-.054c-.218-4.851-.547-12.182,2.1-19.016a22.807,22.807,0,0,1,6.6-9.371,29.031,29.031,0,0,1,13.4-5.933h123v76.98c.026,7.47,7.092,13.563,15.749,13.582h89.253l-2,166.439a57.76,57.76,0,0,1-1.892,15.7,26.409,26.409,0,0,1-5.239,10.173,19.562,19.562,0,0,1-7.921,5.483A28.134,28.134,0,0,1-10454.267,4337Zm-33.268-94.08a37.685,37.685,0,0,0-17.82,4.186,31.141,31.141,0,0,0-12.376,11.609,32.132,32.132,0,0,0-4.456,16.783,32.141,32.141,0,0,0,4.456,16.787,31.3,31.3,0,0,0,12.284,11.609,36.982,36.982,0,0,0,17.642,4.186,46.3,46.3,0,0,0,13.589-2.069,38.2,38.2,0,0,0,11.88-5.941v-25.56h-13.318v18.451a23.764,23.764,0,0,1-11.341,2.7,21.572,21.572,0,0,1-10.575-2.564,18.558,18.558,0,0,1-7.246-7.155,20.85,20.85,0,0,1-2.609-10.441,21.03,21.03,0,0,1,2.609-10.529,18.169,18.169,0,0,1,7.292-7.109,22.333,22.333,0,0,1,10.709-2.522,21.958,21.958,0,0,1,8.842,1.778,22.977,22.977,0,0,1,7.448,5.334l9.36-8.64a29.927,29.927,0,0,0-11.341-8.1A39.167,39.167,0,0,0-10487.534,4242.92Zm-146.07,46.259h0l-8.1,9.72a22.564,22.564,0,0,0,8.774,6.8,28.7,28.7,0,0,0,11.745,2.385c7.405,0,13.1-1.953,16.92-5.8s5.762-9.711,5.762-17.416V4244h-36.63v11.7H-10613v29.968c0,3.465-.749,6.1-2.227,7.831s-3.725,2.609-6.681,2.609a12.052,12.052,0,0,1-6.212-1.732,19.181,19.181,0,0,1-5.488-5.2Zm49.5-45.179v63h14.581v-17.371h12.689a35.654,35.654,0,0,0,14.535-2.744,21.283,21.283,0,0,0,9.494-7.921,21.964,21.964,0,0,0,3.331-12.1,21.918,21.918,0,0,0-3.331-12.15,21.685,21.685,0,0,0-9.494-7.919,35.152,35.152,0,0,0-14.535-2.79Zm-.57-125.914h0l-42.59,92.734h158.808l-46.015-48.842-25.571,25.574-44.632-69.466Zm-38.589-42.086a15.017,15.017,0,0,0-15,15,15.017,15.017,0,0,0,15,15,15.016,15.016,0,0,0,15-15A15.016,15.016,0,0,0-10623.266,4076Zm65.62,201.749h-11.88v-21.87h11.88c4.359,0,7.72.954,9.99,2.835s3.419,4.619,3.419,8.144a9.914,9.914,0,0,1-3.419,8.056C-10549.923,4276.8-10553.283,4277.75-10557.646,4277.75Zm130.38-158.3h-84V4047h3.975a17.837,17.837,0,0,1,6.014,1.029,15.994,15.994,0,0,1,5.1,2.932l64.315,55.475a13.461,13.461,0,0,1,3.4,4.387,11.841,11.841,0,0,1,1.2,5.175v3.452h0Z" transform="translate(10815.766 -3944)" fill="#fff" stroke="rgba(0,0,0,0)" stroke-miterlimit="10" stroke-width="1"/>
  </g>
</svg>
