<svg xmlns="http://www.w3.org/2000/svg" width="250.231" height="290" viewBox="0 0 250.231 290">
  <path id="FontAwsome_file-pdf_" data-name="FontAwsome file-pdf " d="M255.878,247.9a47.4,47.4,0,0,1-1.316-26.565C260.078,221.409,259.546,242.3,255.878,247.9Zm-1.12,26.71A245.4,245.4,0,0,1,236.124,310.1,268.439,268.439,0,0,1,277.4,297.7,77.338,77.338,0,0,1,254.758,274.612ZM193,345.252c0,.446,8.666-3.055,22.9-22.75a82.951,82.951,0,0,0-22.9,22.81ZM299.25,193.564H388.5L386.5,360c0,25-10.682,33-25,33h-4l-194-1c-8.675.02-25-6-25-27h0V140c-.023-7.482-4-32,22-37h123v76.979C283.523,187.473,290.561,193.544,299.25,193.564ZM294,290.8c-13.2-6.992-23.113-17.776-28-30.454a70.816,70.816,0,0,0,4.074-36.334c-1.137-7.767-9.359-13.27-18.365-12.289-5.75.626-10.693,3.818-13.009,8.4a82.007,82.007,0,0,0,5.32,43.579,502.658,502.658,0,0,1-26.782,48.566h-.126c-17.78,7.873-48.3,25.189-35.77,38.5a21.823,21.823,0,0,0,14.084,5.808c11.746,0,23.422-10.191,40.1-35.018a420.447,420.447,0,0,1,51.8-13.138,111.179,111.179,0,0,0,42,11.037c9.376.2,17.167-6.188,17.4-14.275a13.559,13.559,0,0,0-4.48-10.286C333.172,287.182,306.67,289.392,294,290.8Zm89.908-128.371-64.316-55.473a17.11,17.11,0,0,0-11.2-3.961H304.5v72.451h84V172A12.667,12.667,0,0,0,383.908,162.434ZM335.3,306.937c2.688-1.533-1.638-6.738-28.084-5.1C331.534,310.789,335.3,306.937,335.3,306.937Z" transform="translate(-138.269 -103)" fill="#fff"/>
</svg>
