<svg xmlns="http://www.w3.org/2000/svg" width="251.19" height="291" viewBox="0 0 251.19 291">
  <g id="Grupo_1956" data-name="Grupo 1956" transform="translate(-137.815 -102.499)">
    <path id="Sustracción_4" data-name="Sustracción 4" d="M-10454.267,3988h-4l-194-1h-.043a24.654,24.654,0,0,1-7.562-1.27,25.718,25.718,0,0,1-8.173-4.365,23.308,23.308,0,0,1-6.545-8.3,30.387,30.387,0,0,1-2.677-13.064V3735c0-.695-.039-1.527-.086-2.543v-.029l0-.054,0-.053c-.218-4.851-.547-12.182,2.1-19.016a22.833,22.833,0,0,1,6.6-9.372,29.031,29.031,0,0,1,13.4-5.933h123v76.98c.026,7.47,7.092,13.563,15.749,13.581h89.253l-2,166.44a57.761,57.761,0,0,1-1.892,15.7,26.4,26.4,0,0,1-5.239,10.172,19.533,19.533,0,0,1-7.921,5.483A28.123,28.123,0,0,1-10454.267,3988Zm-20.683-94.08a37.723,37.723,0,0,0-17.821,4.186,31.132,31.132,0,0,0-12.375,11.609,32.14,32.14,0,0,0-4.454,16.786,32.137,32.137,0,0,0,4.454,16.784,31.267,31.267,0,0,0,12.284,11.612,37,37,0,0,0,17.641,4.183,46.326,46.326,0,0,0,13.59-2.069,38.205,38.205,0,0,0,11.879-5.941v-25.56h-13.318v18.45a23.729,23.729,0,0,1-11.341,2.7,21.573,21.573,0,0,1-10.574-2.564,18.6,18.6,0,0,1-7.246-7.156,20.842,20.842,0,0,1-2.61-10.44,21.027,21.027,0,0,1,2.61-10.531,18.181,18.181,0,0,1,7.291-7.11,22.332,22.332,0,0,1,10.709-2.519,21.963,21.963,0,0,1,8.842,1.777,22.961,22.961,0,0,1,7.448,5.333l9.361-8.64a29.93,29.93,0,0,0-11.341-8.1A39.178,39.178,0,0,0-10474.949,3893.919Zm-89.013,25.831,0,0,31.408,38.247h11.971v-63h-14.4v38.251L-10566.3,3895h-12.059v63h14.4V3919.75ZM-10643.34,3895v63h14.58v-17.368h12.689a35.66,35.66,0,0,0,14.535-2.747,21.3,21.3,0,0,0,9.494-7.919,21.975,21.975,0,0,0,3.331-12.1,21.908,21.908,0,0,0-3.331-12.15,21.683,21.683,0,0,0-9.494-7.922,35.172,35.172,0,0,0-14.535-2.79Zm58.663-125.914h0l-42.59,92.734h158.808l-46.015-48.842-25.571,25.573-44.632-69.466Zm-38.589-42.086a15.017,15.017,0,0,0-15,15,15.017,15.017,0,0,0,15,15,15.016,15.016,0,0,0,15-15A15.016,15.016,0,0,0-10623.266,3727Zm6.386,201.749h-11.88v-21.87h11.88c4.358,0,7.72.954,9.99,2.835a8.95,8.95,0,0,1,2.564,3.455,12.082,12.082,0,0,1,.854,4.691,9.921,9.921,0,0,1-3.419,8.055C-10609.157,3927.8-10612.519,3928.749-10616.88,3928.749Zm189.614-158.3h-84V3698h3.975a17.837,17.837,0,0,1,6.014,1.029,15.99,15.99,0,0,1,5.1,2.932l64.315,55.475a13.463,13.463,0,0,1,3.4,4.387,11.861,11.861,0,0,1,1.2,5.175v3.453Z" transform="translate(10815.766 -3595)" fill="#fff" stroke="rgba(0,0,0,0)" stroke-miterlimit="10" stroke-width="1"/>
  </g>
</svg>
