<svg xmlns="http://www.w3.org/2000/svg" width="297.254" height="292.128" viewBox="0 0 297.254 292.128">
  <path id="Unión_3" data-name="Unión 3" d="M0,261.644V30.484L169.975,0V31.733H287.493a9.94,9.94,0,0,1,9.76,10.088V243.578a9.94,9.94,0,0,1-9.76,10.088H169.975v38.461h0Zm169.975-18.066h117.5l.015-201.757H169.975v46.3a39.686,39.686,0,0,1,30.633-14.631V115.1h40.256a42.552,42.552,0,0,1-3.164,16.2,41.559,41.559,0,0,1-8.627,13.227,40.063,40.063,0,0,1-12.795,8.918,38.879,38.879,0,0,1-15.67,3.27,39.684,39.684,0,0,1-30.633-14.631v32.707H261.6v11.769H169.975V206.45H261.6v11.769H169.975ZM54.418,97.639v98.226H71.443V163.35c2.025-.172,4.023-.264,5.955-.354a60.574,60.574,0,0,0,12.012-1.338c11.032-2.775,18.271-10.477,20.932-22.275,2.242-9.95,3.98-24.507-6.78-35.992-2.447-2.612-6.463-5.323-9.922-5.494-5.152-.253-10.823-.37-17.846-.37-3.548,0-7.16.029-10.655.056h-.025C61.611,97.61,57.988,97.639,54.418,97.639Zm24.2,47.093c-1.6,0-3.229-.146-4.95-.3l-.023,0c-.564-.05-1.148-.1-1.725-.148V115.47a41.933,41.933,0,0,1,6.684-.708,12.342,12.342,0,0,1,10.079,4.387c1.708,1.992,2.765,5.412,2.9,9.382a20.21,20.21,0,0,1-2.141,10.334c-2.931,5.17-7.117,5.868-10.824,5.868Zm128.224-35.519V67.6c22.233,0,40.255,18.631,40.255,41.611Z" fill="#fff"/>
</svg>
