<svg xmlns="http://www.w3.org/2000/svg" width="309.583" height="302.101" viewBox="0 0 309.583 302.101">
  <path id="Unión_2" data-name="Unión 2" d="M0,269.262V32.351L181.9,0l-.015,41.21H309.583V262.162H181.809l-.015,39.939ZM225.913,240V213.81H181.827L181.817,240Zm10.452-.055h50.981V213.81H236.364Zm-136.1-36.473,24.181,1.416L97.7,151.024l26.033-53.537L101.3,98.522,85.179,136.373l-13.4-36.436-23.037,1.09,23.745,50-25,49.452,21.295,1.2,15.575-37.632Zm136.1-.179h50.981V175.85H236.364Zm-10.452,0V175.85H181.84l-.01,27.442Zm10.452-37.906h50.981V137.945H236.364Zm-10.452,0V137.945H181.854l-.01,27.441Zm10.452-37.905h50.981V100.04H236.364Zm-10.452,0V100.04H181.868l-.01,27.441Zm10.452-37.906h50.981V62.133H236.364Zm-10.452,0V62.133H181.882l-.01,27.441Z" fill="#fff"/>
</svg>
