<svg xmlns="http://www.w3.org/2000/svg" width="195.829" height="194.876" viewBox="0 0 195.829 194.876">
  <g id="Grupo_1965" data-name="Grupo 1965" transform="translate(-9023.454 2479.219)">
    <g id="Grupo_1963" data-name="Grupo 1963" transform="translate(16)">
      <path id="Icon_awesome-hand-holding" data-name="Icon awesome-hand-holding" d="M301.689,210.067a11.251,11.251,0,0,0-14.484,0l-31.417,25.122a21.647,21.647,0,0,1-13.6,4.763H201.975a5.441,5.441,0,0,1,0-10.881h26.62a11.32,11.32,0,0,0,11.32-9.047,10.894,10.894,0,0,0-10.739-12.709h-54.4a40.013,40.013,0,0,0-25.19,8.938l-15.8,12.818H114.937a5.457,5.457,0,0,0-5.437,5.444v32.638a5.458,5.458,0,0,0,5.437,5.438H236.245a21.784,21.784,0,0,0,13.6-4.763l51.405-41.151a10.875,10.875,0,0,0,.439-16.608Z" transform="translate(8897.954 -2556.932)" fill="#fff"/>
      <path id="Trazado_3130" data-name="Trazado 3130" d="M70.276,36.638h50.457V53.457H70.276Zm0,33.638h50.457V87.1H70.276ZM36.638,36.638H53.457V53.457H36.638Zm0,33.638H53.457V87.1H36.638ZM146.8,3H10.569A7.537,7.537,0,0,0,3,10.569V111.723c0,3.364,3.364,7.569,7.569,7.569H146.8c3.364,0,7.569-4.2,7.569-7.569V10.569C154.372,6.364,150.167,3,146.8,3Zm-9.251,99.472H19.819V19.819H137.553Z" transform="translate(9048.91 -2482.219)" fill="#fff"/>
    </g>
  </g>
</svg>
