<svg id="Capa_1" data-name="Capa 1" xmlns="http://www.w3.org/2000/svg" viewBox="0 0 195.83 194.88"><defs><style>.cls-1{fill:#fff;}</style></defs><g id="Grupo_1965" data-name="Grupo 1965"><g id="Grupo_1963" data-name="Grupo 1963"><path id="Icon_awesome-hand-holding" data-name="Icon awesome-hand-holding" class="cls-1" d="M192.19,83.88a11.25,11.25,0,0,0-14.48,0L146.29,109a21.65,21.65,0,0,1-13.6,4.77H92.48a5.45,5.45,0,0,1,0-10.89H119.1a11.31,11.31,0,0,0,11.32-9,10.9,10.9,0,0,0-8.93-12.56,11.05,11.05,0,0,0-1.81-.15H65.28a40,40,0,0,0-25.19,8.94l-15.8,12.81H5.44A5.47,5.47,0,0,0,0,108.33V141a5.46,5.46,0,0,0,5.44,5.43H126.75a21.72,21.72,0,0,0,13.6-4.76l51.4-41.15a10.87,10.87,0,0,0,1.69-15.29,12,12,0,0,0-1.25-1.32Z"/><path id="Trazado_3130" data-name="Trazado 3130" class="cls-1" d="M187,34.39l-133.12,0a9.42,9.42,0,0,0-9.42,9.42h0a9.43,9.43,0,0,0,9.43,9.44l132.58,0a9.36,9.36,0,0,0,9.36-9.35v-.68A8.82,8.82,0,0,0,187,34.39Z"/></g></g></svg>