<svg xmlns="http://www.w3.org/2000/svg" width="47.112" height="30.04" viewBox="0 0 47.112 30.04">
  <g id="Grupo_9" data-name="Grupo 9" transform="translate(-2191.462 -1790.171)">
    <g id="Grupo_7" data-name="Grupo 7" transform="translate(2191.462 1790.171)">
      <g id="g845">
        <path id="path847" d="M-33.461,0h-4.29V8.579h4.29V4.29h4.29V0Z" transform="translate(37.751)" fill="#e2007a"/>
      </g>
      <path id="path849" d="M113.113-558.446h4.29v-8.579h-4.29Z" transform="translate(-108.856 584.195)"/>
      <path id="path851" d="M268.261-718.018h-4.29v4.29h4.29Z" transform="translate(-242.572 718.031)"/>
      <path id="path853" d="M150.95-487.228H159.5v-4.29H150.95Z" transform="translate(-142.394 517.267)"/>
      <path id="path855" d="M377-713.729h4.29v-4.29H377Z" transform="translate(-342.758 718.031)"/>
      <g id="g857" transform="translate(8.557 4.302)">
        <path id="path859" d="M-166.9-66.921h-8.554V-75.5h-4.289v8.579H-188.3v4.29h8.553v8.579h4.289v-8.579h8.554v8.579h4.29V-75.5h-4.29Z" transform="translate(188.3 75.5)"/>
      </g>
      <path id="path861" d="M263.973-487.228h8.554v-4.29h-8.554Z" transform="translate(-242.573 517.267)"/>
    </g>
    <g id="g863" transform="translate(2329.995 1811.631)">
      <path id="path865" d="M-33.461-66.921h4.29V-75.5h-4.29v4.289h-4.29v4.29Z" transform="translate(-62.249 75.5)" fill="#e2007a"/>
    </g>
  </g>
</svg>
