<svg xmlns="http://www.w3.org/2000/svg" width="30" height="24" viewBox="0 0 30 24">
  <path id="FontAwsome_chalkboard-teacher_" data-name="FontAwsome (chalkboard-teacher)" d="M9.748,16.5a1.072,1.072,0,0,0-.331.051,6.184,6.184,0,0,1-1.919.324,6.189,6.189,0,0,1-1.92-.324,1.069,1.069,0,0,0-.33-.051A5.25,5.25,0,0,0,0,21.779,2.244,2.244,0,0,0,2.248,24h10.5A2.244,2.244,0,0,0,15,21.779,5.25,5.25,0,0,0,9.748,16.5ZM7.5,15A4.5,4.5,0,1,0,3,10.5,4.5,4.5,0,0,0,7.5,15ZM27.748,0h-18A2.291,2.291,0,0,0,7.5,2.325V4.5a5.932,5.932,0,0,1,3,.834V3H27V16.5H24v-3H18v3H14.425a5.974,5.974,0,0,1,1.86,3H27.748A2.291,2.291,0,0,0,30,17.175V2.325A2.291,2.291,0,0,0,27.748,0Z" transform="translate(0.002)" fill="#929292"/>
</svg>
