<svg xmlns="http://www.w3.org/2000/svg" width="31.156" height="27.062" viewBox="0 0 31.156 27.062">
  <g id="Componente_28" data-name="Componente 28" transform="translate(0 3.062)">
    <path id="FontAwsome_chalkboard-teacher_" data-name="FontAwsome (chalkboard-teacher)" d="M9.748,16.5a1.072,1.072,0,0,0-.331.051,6.184,6.184,0,0,1-1.919.324,6.189,6.189,0,0,1-1.92-.324,1.069,1.069,0,0,0-.33-.051A5.25,5.25,0,0,0,0,21.779,2.244,2.244,0,0,0,2.248,24h10.5A2.244,2.244,0,0,0,15,21.779,5.25,5.25,0,0,0,9.748,16.5ZM7.5,15A4.5,4.5,0,1,0,3,10.5,4.5,4.5,0,0,0,7.5,15Z" transform="translate(0.002)" fill="#929292"/>
    <g id="Icon_ionic-ios-school" data-name="Icon ionic-ios-school" transform="translate(8.932 -7.491)">
      <path id="Trazado_3111" data-name="Trazado 3111" d="M6.813,18.8v4.119a.36.36,0,0,0,.178.311L12.856,26.6a.356.356,0,0,0,.533-.311V22.12a.36.36,0,0,0-.178-.311L7.346,18.481A.362.362,0,0,0,6.813,18.8Z" transform="translate(-1.655 -5.156)" fill="#929292"/>
      <path id="Trazado_3112" data-name="Trazado 3112" d="M19.443,26.574,25.312,23.2a.355.355,0,0,0,.178-.311V18.727a.357.357,0,0,0-.533-.311l-5.865,3.372a.355.355,0,0,0-.178.311v4.168A.352.352,0,0,0,19.443,26.574Z" transform="translate(-6.109 -5.131)" fill="#929292"/>
      <path id="Trazado_3113" data-name="Trazado 3113" d="M11.916,4.523l-9.42,5.5a.355.355,0,0,0,0,.618l9.42,5.234a.715.715,0,0,0,.706,0l8.358-4.785c.235-.138.311.036.311.311v6.816c0,.3.173.444.489.444h0a.438.438,0,0,0,.444-.444V10.584a.36.36,0,0,0-.178-.311l-9.424-5.75A.715.715,0,0,0,11.916,4.523Z" fill="#929292"/>
    </g>
  </g>
</svg>
