<svg xmlns="http://www.w3.org/2000/svg" width="99.935" height="99.935" viewBox="0 0 99.935 99.935">
  <path id="FontAwsome_play-circle_" data-name="FontAwsome (play-circle)" d="M81.279,54.341,45.818,32.782a4.844,4.844,0,0,0-7.193,4.231V78.921a4.847,4.847,0,0,0,7.193,4.231L81.279,62.8A4.851,4.851,0,0,0,81.279,54.341Zm26.656,3.627a49.967,49.967,0,1,0-49.967,49.967A49.959,49.959,0,0,0,107.935,57.967Zm-90.264,0a40.3,40.3,0,1,1,40.3,40.3A40.285,40.285,0,0,1,17.671,57.967Z" transform="translate(-8 -8)" fill="#fff"/>
</svg>
